# xmcd
#
# Track frame offsets: 
#        150
#        16133
#        32511
#        62805
#        77854
#        94707
#        112902
#        133659
#        147521
#        163429
#        180164
#        201277
#        223894
#        242066
#        267413
#        283030
#        315685
#        331076
#
# Disc length: 4788 seconds
#
# Revision: 0
# Processed by: cddbd v1.5.2PL0 Copyright (c) Steve Scherf et al.
# Submitted via: ExactAudioCopy v0.99pb3
#
DISCID=0812b212
DTITLE=Ric Derrnger - Guitars And Women and Face To Face (BFO 2fer)
DYEAR=1900
DGENRE=Blues
TTITLE0=Something Warm
TTITLE1=Guitaers And Women
TTITLE2=Everything
TTITLE3=Man In The Middle
TTITLE4=It Must Be Love
TTITLE5=Desires Of The Heart
TTITLE6=Timeless
TTITLE7=Hopeless Romantic
TTITLE8=Need A Little Girl (Just Like You)
TTITLE9=Don't Ever Say Goodbye
TTITLE10=Runaway
TTITLE11=You'll Get Yours
TTITLE12=Big City Lonliness
TTITLE13=Burn The Midnight Oil
TTITLE14=Let The Music Play
TTITLE15=Jump, Jump, Jump
TTITLE16=I Want A Lover
TTITLE17=My, My, Hey Hey (Out Of The Blue)
EXTD=
EXTT0=
EXTT1=
EXTT2=
EXTT3=
EXTT4=
EXTT5=
EXTT6=
EXTT7=
EXTT8=
EXTT9=
EXTT10=
EXTT11=
EXTT12=
EXTT13=
EXTT14=
EXTT15=
EXTT16=
EXTT17=
PLAYORDER=
